# xmcd
#
# Track frame offsets:
#	150
#	20002
#	43730
#	65876
#	80252
#	98739
#	117340
#	136383
#	155774
#	177111
#	191348
#	210401
#
# Disc length: 3065 seconds
#
# Revision: 0
# Processed by: cddbd v1.5.2PL0 Copyright (c) Steve Scherf et al.
# Submitted via: EasyCDDAExtractor 11.5.3.1
#
DISCID=a30bf70c
DTITLE=Ivan Johnsen - I Vand Til Halsen
DYEAR=2000
DGENRE=Country
TTITLE0=Havfruen
TTITLE1=Der Hvor Græsset Gror
TTITLE2=Hele Natten Lang
TTITLE3=Jeg Ved Det Går Over
TTITLE4=Stokkesangen
TTITLE5=Ingen Kan Dømme
TTITLE6=10 Vilde Djævle
TTITLE7=Håndbremsen
TTITLE8=Som En Trækfugl
TTITLE9=Vi Ved Hvor Du Bor
TTITLE10=Det' For Sent
TTITLE11=Skørblues
EXTD=
EXTT0=
EXTT1=
EXTT2=
EXTT3=
EXTT4=
EXTT5=
EXTT6=
EXTT7=
EXTT8=
EXTT9=
EXTT10=
EXTT11=
PLAYORDER=
